<?xml version="1.0" encoding="UTF-8"?><svg xmlns="http://www.w3.org/2000/svg" xmlns:xlink="http://www.w3.org/1999/xlink" width="375" zoomAndPan="magnify" viewBox="0 0 375 374.999991" height="374.999991" preserveAspectRatio="xMidYMid meet" version="1.0"><defs><g><g id="glyph-0-0"/><g id="glyph-0-1"><path d="M 12.78125 -4.953125 C 12.78125 -3.347656 12.195312 -2.078125 11.03125 -1.140625 C 9.875 -0.210938 8.265625 0.25 6.203125 0.25 C 4.296875 0.25 2.609375 -0.109375 1.140625 -0.828125 L 1.140625 -4.34375 C 2.347656 -3.8125 3.367188 -3.429688 4.203125 -3.203125 C 5.035156 -2.984375 5.800781 -2.875 6.5 -2.875 C 7.320312 -2.875 7.953125 -3.03125 8.390625 -3.34375 C 8.835938 -3.664062 9.0625 -4.140625 9.0625 -4.765625 C 9.0625 -5.117188 8.960938 -5.429688 8.765625 -5.703125 C 8.578125 -5.972656 8.289062 -6.234375 7.90625 -6.484375 C 7.53125 -6.742188 6.765625 -7.148438 5.609375 -7.703125 C 4.515625 -8.210938 3.691406 -8.703125 3.140625 -9.171875 C 2.597656 -9.648438 2.164062 -10.203125 1.84375 -10.828125 C 1.519531 -11.453125 1.359375 -12.1875 1.359375 -13.03125 C 1.359375 -14.601562 1.890625 -15.84375 2.953125 -16.75 C 4.023438 -17.65625 5.503906 -18.109375 7.390625 -18.109375 C 8.328125 -18.109375 9.210938 -17.992188 10.046875 -17.765625 C 10.890625 -17.546875 11.773438 -17.238281 12.703125 -16.84375 L 11.46875 -13.90625 C 10.519531 -14.289062 9.734375 -14.5625 9.109375 -14.71875 C 8.484375 -14.875 7.875 -14.953125 7.28125 -14.953125 C 6.5625 -14.953125 6.007812 -14.785156 5.625 -14.453125 C 5.238281 -14.117188 5.046875 -13.679688 5.046875 -13.140625 C 5.046875 -12.804688 5.125 -12.515625 5.28125 -12.265625 C 5.4375 -12.023438 5.679688 -11.785156 6.015625 -11.546875 C 6.359375 -11.316406 7.160156 -10.898438 8.421875 -10.296875 C 10.085938 -9.503906 11.226562 -8.707031 11.84375 -7.90625 C 12.46875 -7.101562 12.78125 -6.117188 12.78125 -4.953125 Z M 12.78125 -4.953125 "/></g><g id="glyph-0-2"><path d="M 12.53125 0 L 2.25 0 L 2.25 -17.84375 L 12.53125 -17.84375 L 12.53125 -14.75 L 6.03125 -14.75 L 6.03125 -10.828125 L 12.078125 -10.828125 L 12.078125 -7.734375 L 6.03125 -7.734375 L 6.03125 -3.125 L 12.53125 -3.125 Z M 12.53125 0 "/></g><g id="glyph-0-3"><path d="M 6.03125 -9.921875 L 7.25 -9.921875 C 8.445312 -9.921875 9.328125 -10.117188 9.890625 -10.515625 C 10.460938 -10.921875 10.75 -11.550781 10.75 -12.40625 C 10.75 -13.25 10.457031 -13.847656 9.875 -14.203125 C 9.300781 -14.566406 8.398438 -14.75 7.171875 -14.75 L 6.03125 -14.75 Z M 6.03125 -6.84375 L 6.03125 0 L 2.25 0 L 2.25 -17.84375 L 7.453125 -17.84375 C 9.867188 -17.84375 11.660156 -17.398438 12.828125 -16.515625 C 13.992188 -15.640625 14.578125 -14.300781 14.578125 -12.5 C 14.578125 -11.445312 14.285156 -10.507812 13.703125 -9.6875 C 13.128906 -8.875 12.3125 -8.238281 11.25 -7.78125 C 13.9375 -3.769531 15.6875 -1.175781 16.5 0 L 12.3125 0 L 8.046875 -6.84375 Z M 6.03125 -6.84375 "/></g><g id="glyph-0-4"><path d="M 12.421875 -17.84375 L 16.25 -17.84375 L 10.1875 0 L 6.0625 0 L 0 -17.84375 L 3.828125 -17.84375 L 7.171875 -7.234375 C 7.359375 -6.597656 7.550781 -5.863281 7.75 -5.03125 C 7.957031 -4.195312 8.082031 -3.617188 8.125 -3.296875 C 8.21875 -4.046875 8.523438 -5.359375 9.046875 -7.234375 Z M 12.421875 -17.84375 "/></g><g id="glyph-0-5"><path d="M 2.25 0 L 2.25 -17.84375 L 6.03125 -17.84375 L 6.03125 0 Z M 2.25 0 "/></g><g id="glyph-0-6"><path d="M 9.828125 -14.953125 C 8.398438 -14.953125 7.296875 -14.414062 6.515625 -13.34375 C 5.734375 -12.28125 5.34375 -10.789062 5.34375 -8.875 C 5.34375 -4.894531 6.835938 -2.90625 9.828125 -2.90625 C 11.078125 -2.90625 12.59375 -3.21875 14.375 -3.84375 L 14.375 -0.671875 C 12.914062 -0.0546875 11.28125 0.25 9.46875 0.25 C 6.875 0.25 4.890625 -0.535156 3.515625 -2.109375 C 2.140625 -3.691406 1.453125 -5.957031 1.453125 -8.90625 C 1.453125 -10.757812 1.789062 -12.382812 2.46875 -13.78125 C 3.144531 -15.175781 4.113281 -16.242188 5.375 -16.984375 C 6.644531 -17.734375 8.128906 -18.109375 9.828125 -18.109375 C 11.554688 -18.109375 13.296875 -17.6875 15.046875 -16.84375 L 13.828125 -13.765625 C 13.160156 -14.085938 12.488281 -14.363281 11.8125 -14.59375 C 11.132812 -14.832031 10.472656 -14.953125 9.828125 -14.953125 Z M 9.828125 -14.953125 "/></g><g id="glyph-0-7"><path d="M 18.4375 -8.953125 C 18.4375 -5.992188 17.703125 -3.71875 16.234375 -2.125 C 14.773438 -0.539062 12.679688 0.25 9.953125 0.25 C 7.210938 0.25 5.109375 -0.539062 3.640625 -2.125 C 2.179688 -3.71875 1.453125 -6 1.453125 -8.96875 C 1.453125 -11.9375 2.1875 -14.203125 3.65625 -15.765625 C 5.125 -17.335938 7.226562 -18.125 9.96875 -18.125 C 12.71875 -18.125 14.816406 -17.332031 16.265625 -15.75 C 17.710938 -14.175781 18.4375 -11.910156 18.4375 -8.953125 Z M 5.421875 -8.953125 C 5.421875 -6.953125 5.796875 -5.445312 6.546875 -4.4375 C 7.304688 -3.4375 8.441406 -2.9375 9.953125 -2.9375 C 12.972656 -2.9375 14.484375 -4.941406 14.484375 -8.953125 C 14.484375 -12.972656 12.976562 -14.984375 9.96875 -14.984375 C 8.46875 -14.984375 7.332031 -14.472656 6.5625 -13.453125 C 5.800781 -12.441406 5.421875 -10.941406 5.421875 -8.953125 Z M 5.421875 -8.953125 "/></g><g id="glyph-0-8"/><g id="glyph-0-9"><path d="M 17.046875 -9.09375 C 17.046875 -6.15625 16.207031 -3.90625 14.53125 -2.34375 C 12.863281 -0.78125 10.453125 0 7.296875 0 L 2.25 0 L 2.25 -17.84375 L 7.84375 -17.84375 C 10.757812 -17.84375 13.019531 -17.070312 14.625 -15.53125 C 16.238281 -14 17.046875 -11.851562 17.046875 -9.09375 Z M 13.125 -9 C 13.125 -12.832031 11.429688 -14.75 8.046875 -14.75 L 6.03125 -14.75 L 6.03125 -3.125 L 7.65625 -3.125 C 11.300781 -3.125 13.125 -5.082031 13.125 -9 Z M 13.125 -9 "/></g><g id="glyph-0-10"><path d="M 13.171875 0 L 11.875 -4.25 L 5.375 -4.25 L 4.078125 0 L 0 0 L 6.296875 -17.921875 L 10.921875 -17.921875 L 17.25 0 Z M 10.96875 -7.421875 C 9.78125 -11.273438 9.109375 -13.453125 8.953125 -13.953125 C 8.804688 -14.453125 8.695312 -14.851562 8.625 -15.15625 C 8.363281 -14.113281 7.597656 -11.535156 6.328125 -7.421875 Z M 10.96875 -7.421875 "/></g><g id="glyph-0-11"><path d="M 6.03125 -9.453125 L 7.28125 -9.453125 C 8.4375 -9.453125 9.300781 -9.679688 9.875 -10.140625 C 10.457031 -10.597656 10.75 -11.265625 10.75 -12.140625 C 10.75 -13.035156 10.503906 -13.691406 10.015625 -14.109375 C 9.535156 -14.535156 8.78125 -14.75 7.75 -14.75 L 6.03125 -14.75 Z M 14.578125 -12.28125 C 14.578125 -10.363281 13.972656 -8.894531 12.765625 -7.875 C 11.566406 -6.851562 9.863281 -6.34375 7.65625 -6.34375 L 6.03125 -6.34375 L 6.03125 0 L 2.25 0 L 2.25 -17.84375 L 7.953125 -17.84375 C 10.109375 -17.84375 11.75 -17.375 12.875 -16.4375 C 14.007812 -15.507812 14.578125 -14.125 14.578125 -12.28125 Z M 14.578125 -12.28125 "/></g><g id="glyph-0-12"><path d="M 18.078125 0 L 13.265625 0 L 5.5 -13.5 L 5.390625 -13.5 C 5.546875 -11.113281 5.625 -9.414062 5.625 -8.40625 L 5.625 0 L 2.25 0 L 2.25 -17.84375 L 7.015625 -17.84375 L 14.765625 -4.484375 L 14.859375 -4.484375 C 14.734375 -6.796875 14.671875 -8.4375 14.671875 -9.40625 L 14.671875 -17.84375 L 18.078125 -17.84375 Z M 18.078125 0 "/></g></g><clipPath id="clip-0"><path d="M 244.320312 68.460938 L 326.46875 68.460938 L 326.46875 77.640625 L 244.320312 77.640625 Z M 244.320312 68.460938 " clip-rule="nonzero"/></clipPath><clipPath id="clip-1"><path d="M 142 55.460938 L 232 55.460938 L 232 107 L 142 107 Z M 142 55.460938 " clip-rule="nonzero"/></clipPath><clipPath id="clip-2"><path d="M 47.007812 68 L 130 68 L 130 78 L 47.007812 78 Z M 47.007812 68 " clip-rule="nonzero"/></clipPath><clipPath id="clip-3"><path d="M 161.144531 115.117188 L 213 115.117188 L 213 158.179688 L 161.144531 158.179688 Z M 161.144531 115.117188 " clip-rule="nonzero"/></clipPath><clipPath id="clip-4"><path d="M 103 148.746094 L 271.085938 148.746094 L 271.085938 199 L 103 199 Z M 103 148.746094 " clip-rule="nonzero"/></clipPath><clipPath id="clip-5"><path d="M 103 254 L 271.085938 254 L 271.085938 299.035156 L 103 299.035156 Z M 103 254 " clip-rule="nonzero"/></clipPath></defs><path fill="rgb(14.898682%, 14.898682%, 15.689087%)" d="M 290.171875 62.164062 C 290.171875 59.730469 288.222656 57.757812 285.816406 57.757812 C 283.410156 57.757812 281.460938 59.730469 281.460938 62.164062 L 281.460938 103.390625 C 281.460938 105.824219 283.410156 107.796875 285.816406 107.796875 C 288.222656 107.796875 290.171875 105.824219 290.171875 103.390625 L 290.171875 62.164062 " fill-opacity="1" fill-rule="nonzero"/><g clip-path="url(#clip-0)"><path fill="rgb(14.898682%, 14.898682%, 15.689087%)" d="M 248.839844 68.472656 C 246.433594 68.472656 244.480469 70.441406 244.480469 72.878906 C 244.480469 75.308594 246.433594 77.28125 248.839844 77.28125 L 322.109375 77.28125 C 324.515625 77.28125 326.46875 75.308594 326.46875 72.878906 C 326.46875 70.441406 324.515625 68.472656 322.109375 68.472656 L 248.839844 68.472656 " fill-opacity="1" fill-rule="nonzero"/></g><g clip-path="url(#clip-1)"><path fill="rgb(14.898682%, 14.898682%, 15.689087%)" d="M 147 77.902344 L 169.128906 77.902344 C 168.878906 76.679688 168.746094 75.421875 168.746094 74.136719 C 168.746094 68.980469 170.8125 64.3125 174.152344 60.933594 C 177.492188 57.554688 182.109375 55.460938 187.207031 55.460938 C 192.304688 55.460938 196.917969 57.554688 200.261719 60.933594 C 203.601562 64.3125 205.664062 68.980469 205.664062 74.136719 C 205.664062 75.421875 205.535156 76.679688 205.285156 77.902344 L 227.410156 77.902344 C 229.816406 77.902344 231.765625 79.878906 231.765625 82.308594 L 231.765625 102.015625 C 231.765625 104.449219 229.816406 106.421875 227.410156 106.421875 L 147 106.421875 C 144.597656 106.421875 142.648438 104.449219 142.648438 102.015625 L 142.648438 82.308594 C 142.648438 79.878906 144.597656 77.902344 147 77.902344 Z M 175.644531 86.714844 L 151.355469 86.714844 L 151.355469 97.609375 L 223.058594 97.609375 L 223.058594 86.714844 L 198.769531 86.714844 C 197.902344 86.71875 197.03125 86.457031 196.269531 85.917969 C 194.300781 84.523438 193.820312 81.777344 195.199219 79.78125 L 195.214844 79.792969 C 195.765625 78.996094 196.207031 78.09375 196.511719 77.113281 C 196.796875 76.1875 196.957031 75.1875 196.957031 74.136719 C 196.957031 71.410156 195.863281 68.945312 194.101562 67.164062 C 192.339844 65.378906 189.898438 64.273438 187.207031 64.273438 C 184.515625 64.273438 182.074219 65.378906 180.3125 67.164062 C 178.546875 68.945312 177.457031 71.410156 177.457031 74.136719 C 177.457031 75.1875 177.613281 76.1875 177.902344 77.113281 C 178.171875 77.984375 178.546875 78.792969 179.019531 79.523438 C 179.632812 80.28125 180 81.253906 180 82.308594 C 180 84.742188 178.050781 86.714844 175.644531 86.714844 " fill-opacity="1" fill-rule="nonzero"/></g><path fill="rgb(14.898682%, 14.898682%, 15.689087%)" d="M 144.5 97.773438 L 230.019531 97.773438 C 232.421875 97.773438 234.371094 99.746094 234.371094 102.179688 C 234.371094 102.941406 234.179688 103.65625 233.84375 104.285156 L 226.074219 121.339844 L 226.085938 121.34375 C 225.335938 122.980469 223.722656 123.933594 222.046875 123.902344 L 152.304688 123.902344 C 150.449219 123.902344 148.863281 122.726562 148.238281 121.074219 L 140.46875 104.023438 L 144.417969 102.179688 L 140.460938 104.023438 C 139.453125 101.8125 140.410156 99.195312 142.59375 98.179688 C 143.214844 97.890625 143.863281 97.761719 144.5 97.773438 Z M 223.226562 106.585938 L 151.210938 106.585938 L 155.085938 115.089844 L 219.351562 115.089844 L 223.226562 106.585938 " fill-opacity="1" fill-rule="nonzero"/><path fill="rgb(14.898682%, 14.898682%, 15.689087%)" d="M 93.414062 62.164062 C 93.414062 59.730469 91.464844 57.757812 89.058594 57.757812 C 86.652344 57.757812 84.703125 59.730469 84.703125 62.164062 L 84.703125 103.390625 C 84.703125 105.824219 86.652344 107.796875 89.058594 107.796875 C 91.464844 107.796875 93.414062 105.824219 93.414062 103.390625 L 93.414062 62.164062 " fill-opacity="1" fill-rule="nonzero"/><g clip-path="url(#clip-2)"><path fill="rgb(14.898682%, 14.898682%, 15.689087%)" d="M 52.082031 68.472656 C 49.675781 68.472656 47.726562 70.441406 47.726562 72.878906 C 47.726562 75.308594 49.675781 77.28125 52.082031 77.28125 L 125.351562 77.28125 C 127.761719 77.28125 129.710938 75.308594 129.710938 72.878906 C 129.710938 70.441406 127.761719 68.472656 125.351562 68.472656 L 52.082031 68.472656 " fill-opacity="1" fill-rule="nonzero"/></g><g clip-path="url(#clip-3)"><path fill="rgb(14.898682%, 14.898682%, 15.689087%)" d="M 172.515625 115.253906 L 201.917969 115.253906 C 204.914062 115.253906 207.636719 116.488281 209.609375 118.484375 C 211.578125 120.480469 212.800781 123.230469 212.800781 126.261719 L 212.800781 147.171875 C 212.800781 150.203125 211.578125 152.957031 209.609375 154.949219 C 207.636719 156.945312 204.914062 158.179688 201.917969 158.179688 L 172.515625 158.179688 C 169.519531 158.179688 166.796875 156.945312 164.824219 154.949219 C 162.855469 152.957031 161.632812 150.203125 161.632812 147.171875 L 161.632812 126.261719 C 161.632812 123.230469 162.855469 120.480469 164.824219 118.484375 C 166.796875 116.488281 169.519531 115.253906 172.515625 115.253906 Z M 201.917969 124.0625 L 172.515625 124.0625 C 171.921875 124.0625 171.378906 124.316406 170.984375 124.710938 C 170.589844 125.117188 170.34375 125.664062 170.34375 126.261719 L 170.34375 147.171875 C 170.34375 147.769531 170.589844 148.316406 170.984375 148.71875 C 171.378906 149.121094 171.921875 149.371094 172.515625 149.371094 L 201.917969 149.371094 C 202.507812 149.371094 203.050781 149.121094 203.449219 148.71875 C 203.84375 148.316406 204.089844 147.769531 204.089844 147.171875 L 204.089844 126.261719 C 204.089844 125.664062 203.84375 125.117188 203.449219 124.710938 C 203.050781 124.316406 202.507812 124.0625 201.917969 124.0625 " fill-opacity="1" fill-rule="nonzero"/></g><path fill="rgb(14.898682%, 14.898682%, 15.689087%)" d="M 187.21875 142.519531 C 190.375 142.519531 192.953125 139.910156 192.953125 136.71875 C 192.953125 133.519531 190.375 130.914062 187.21875 130.914062 C 184.058594 130.914062 181.480469 133.519531 181.480469 136.71875 C 181.480469 139.910156 184.058594 142.519531 187.21875 142.519531 " fill-opacity="1" fill-rule="evenodd"/><path fill="rgb(14.898682%, 14.898682%, 15.689087%)" d="M 90.652344 97.769531 C 88.242188 97.769531 86.292969 99.742188 86.292969 102.175781 C 86.292969 104.609375 88.242188 106.582031 90.652344 106.582031 L 285.816406 106.582031 C 288.222656 106.582031 290.171875 104.609375 290.171875 102.175781 C 290.171875 99.742188 288.222656 97.769531 285.816406 97.769531 L 90.652344 97.769531 " fill-opacity="1" fill-rule="nonzero"/><path fill="rgb(14.898682%, 14.898682%, 15.689087%)" d="M 284.789062 152.167969 C 278.796875 152.167969 273.460938 149.023438 269.671875 143.933594 C 266.144531 139.195312 263.960938 132.726562 263.960938 125.640625 C 263.960938 118.554688 266.144531 112.082031 269.671875 107.34375 C 273.460938 102.257812 278.796875 99.109375 284.789062 99.109375 C 290.78125 99.109375 296.117188 102.257812 299.90625 107.34375 C 303.433594 112.082031 305.617188 118.554688 305.617188 125.640625 C 305.617188 132.722656 303.433594 139.195312 299.90625 143.933594 C 296.117188 149.023438 290.78125 152.167969 284.789062 152.167969 Z M 276.613281 138.632812 C 278.785156 141.550781 281.683594 143.359375 284.789062 143.359375 C 287.894531 143.359375 290.792969 141.550781 292.964844 138.632812 C 295.398438 135.363281 296.90625 130.773438 296.90625 125.640625 C 296.90625 120.503906 295.398438 115.917969 292.964844 112.648438 C 290.792969 109.730469 287.894531 107.921875 284.789062 107.921875 C 281.683594 107.921875 278.785156 109.730469 276.613281 112.648438 C 274.179688 115.917969 272.671875 120.503906 272.671875 125.640625 C 272.671875 130.773438 274.179688 135.363281 276.613281 138.632812 " fill-opacity="1" fill-rule="nonzero"/><path fill="rgb(14.898682%, 14.898682%, 15.689087%)" d="M 88.058594 152.167969 C 82.070312 152.167969 76.730469 149.023438 72.941406 143.933594 C 69.414062 139.195312 67.234375 132.726562 67.234375 125.640625 C 67.234375 118.554688 69.414062 112.082031 72.941406 107.34375 C 76.730469 102.257812 82.070312 99.109375 88.058594 99.109375 C 94.050781 99.109375 99.390625 102.257812 103.175781 107.34375 C 106.703125 112.082031 108.886719 118.554688 108.886719 125.640625 C 108.886719 132.722656 106.703125 139.195312 103.175781 143.933594 C 99.390625 149.023438 94.050781 152.167969 88.058594 152.167969 Z M 79.882812 138.632812 C 82.054688 141.550781 84.953125 143.359375 88.058594 143.359375 C 91.164062 143.359375 94.0625 141.550781 96.234375 138.632812 C 98.667969 135.363281 100.175781 130.773438 100.175781 125.640625 C 100.175781 120.503906 98.667969 115.917969 96.234375 112.648438 C 94.0625 109.730469 91.164062 107.921875 88.058594 107.921875 C 84.953125 107.921875 82.054688 109.730469 79.882812 112.648438 C 77.449219 115.917969 75.945312 120.503906 75.945312 125.640625 C 75.945312 130.773438 77.449219 135.363281 79.882812 138.632812 " fill-opacity="1" fill-rule="nonzero"/><path fill="rgb(14.898682%, 14.898682%, 15.689087%)" d="M 88.058594 129.511719 C 90.167969 129.511719 91.886719 127.773438 91.886719 125.636719 C 91.886719 123.507812 90.167969 121.765625 88.058594 121.765625 C 85.953125 121.765625 84.230469 123.507812 84.230469 125.636719 C 84.230469 127.773438 85.953125 129.511719 88.058594 129.511719 " fill-opacity="1" fill-rule="evenodd"/><path fill="rgb(14.898682%, 14.898682%, 15.689087%)" d="M 284.789062 129.511719 C 286.898438 129.511719 288.617188 127.773438 288.617188 125.636719 C 288.617188 123.507812 286.898438 121.765625 284.789062 121.765625 C 282.683594 121.765625 280.964844 123.507812 280.964844 125.636719 C 280.964844 127.773438 282.683594 129.511719 284.789062 129.511719 " fill-opacity="1" fill-rule="evenodd"/><g clip-path="url(#clip-4)"><path fill="rgb(14.898682%, 14.898682%, 15.689087%)" d="M 198.25 172.96875 L 198.25 167.363281 L 201.050781 167.363281 L 201.050781 175.769531 L 181.441406 175.769531 L 181.441406 170.167969 L 175.835938 170.167969 L 175.835938 175.769531 L 173.035156 175.769531 L 173.035156 167.363281 L 192.644531 167.363281 L 192.644531 172.96875 Z M 192.644531 186.316406 L 190.917969 189.777344 L 183.167969 189.777344 L 181.441406 186.316406 L 181.441406 181.371094 L 192.644531 181.371094 Z M 189.84375 144.953125 L 189.84375 161.761719 L 184.242188 161.761719 L 184.242188 144.953125 C 184.242188 143.410156 182.984375 142.152344 181.441406 142.152344 L 103 142.152344 L 103 147.753906 L 178.640625 147.753906 L 178.640625 161.761719 L 170.234375 161.761719 C 168.691406 161.761719 167.433594 163.019531 167.433594 164.5625 L 167.433594 167.363281 L 164.632812 167.363281 L 164.632812 172.96875 L 167.433594 172.96875 L 167.433594 178.570312 C 167.433594 180.113281 168.691406 181.371094 170.234375 181.371094 L 175.835938 181.371094 L 175.835938 186.976562 C 175.835938 187.414062 175.9375 187.839844 176.132812 188.234375 L 178.933594 193.835938 C 179.40625 194.777344 180.378906 195.378906 181.441406 195.378906 L 184.242188 195.378906 L 184.242188 198.179688 L 189.84375 198.179688 L 189.84375 195.378906 L 192.644531 195.378906 C 193.707031 195.378906 194.679688 194.777344 195.152344 193.835938 L 197.953125 188.234375 C 198.152344 187.839844 198.25 187.414062 198.25 186.976562 L 198.25 181.371094 L 203.851562 181.371094 C 205.394531 181.371094 206.652344 180.113281 206.652344 178.570312 L 206.652344 172.96875 L 209.453125 172.96875 L 209.453125 167.363281 L 206.652344 167.363281 L 206.652344 164.5625 C 206.652344 163.019531 205.394531 161.761719 203.851562 161.761719 L 195.449219 161.761719 L 195.449219 147.753906 L 271.085938 147.753906 L 271.085938 142.152344 L 192.644531 142.152344 C 191.101562 142.152344 189.84375 143.410156 189.84375 144.953125 " fill-opacity="1" fill-rule="nonzero"/></g><g clip-path="url(#clip-5)"><path fill="rgb(14.898682%, 14.898682%, 15.689087%)" d="M 136.617188 273.820312 C 128.300781 273.820312 121.382812 267.757812 120.039062 259.8125 L 122.609375 259.8125 C 130.925781 259.8125 137.84375 265.875 139.1875 273.820312 Z M 161.828125 259.8125 L 164.402344 259.8125 C 163.054688 267.757812 156.140625 273.820312 147.824219 273.820312 L 145.25 273.820312 C 146.597656 265.875 153.511719 259.8125 161.828125 259.8125 Z M 226.265625 273.820312 C 217.945312 273.820312 211.03125 267.757812 209.683594 259.8125 L 212.257812 259.8125 C 220.574219 259.8125 227.488281 265.875 228.835938 273.820312 Z M 251.476562 259.8125 L 254.046875 259.8125 C 252.703125 267.757812 245.785156 273.820312 237.46875 273.820312 L 234.898438 273.820312 C 236.242188 265.875 243.160156 259.8125 251.476562 259.8125 Z M 234.667969 279.421875 L 237.46875 279.421875 C 249.824219 279.421875 259.882812 269.367188 259.882812 257.011719 C 259.882812 255.46875 258.621094 254.210938 257.078125 254.210938 L 251.476562 254.210938 C 243.039062 254.210938 235.6875 258.894531 231.867188 265.800781 C 228.046875 258.894531 220.695312 254.210938 212.257812 254.210938 L 206.652344 254.210938 C 205.109375 254.210938 203.851562 255.46875 203.851562 257.011719 C 203.851562 269.367188 213.910156 279.421875 226.265625 279.421875 L 229.066406 279.421875 L 229.066406 293.429688 L 145.019531 293.429688 L 145.019531 279.421875 L 147.824219 279.421875 C 160.175781 279.421875 170.234375 269.367188 170.234375 257.011719 C 170.234375 255.46875 168.976562 254.210938 167.433594 254.210938 L 161.828125 254.210938 C 153.394531 254.210938 146.039062 258.894531 142.21875 265.800781 C 138.402344 258.894531 131.046875 254.210938 122.609375 254.210938 L 117.007812 254.210938 C 115.464844 254.210938 114.203125 255.46875 114.203125 257.011719 C 114.203125 269.367188 124.261719 279.421875 136.617188 279.421875 L 139.417969 279.421875 L 139.417969 293.429688 L 103 293.429688 L 103 299.035156 L 271.085938 299.035156 L 271.085938 293.429688 L 234.667969 293.429688 L 234.667969 279.421875 " fill-opacity="1" fill-rule="nonzero"/></g><path fill="rgb(14.898682%, 14.898682%, 15.689087%)" d="M 189.84375 203.785156 L 184.242188 203.785156 L 184.242188 209.386719 L 189.84375 209.386719 L 189.84375 203.785156 " fill-opacity="1" fill-rule="nonzero"/><path fill="rgb(14.898682%, 14.898682%, 15.689087%)" d="M 184.242188 220.59375 L 189.84375 220.59375 L 189.84375 214.988281 L 184.242188 214.988281 L 184.242188 220.59375 " fill-opacity="1" fill-rule="nonzero"/><path fill="rgb(14.898682%, 14.898682%, 15.689087%)" d="M 184.242188 231.796875 L 189.84375 231.796875 L 189.84375 226.195312 L 184.242188 226.195312 L 184.242188 231.796875 " fill-opacity="1" fill-rule="nonzero"/><path fill="rgb(14.898682%, 14.898682%, 15.689087%)" d="M 184.242188 243.003906 L 189.84375 243.003906 L 189.84375 237.402344 L 184.242188 237.402344 L 184.242188 243.003906 " fill-opacity="1" fill-rule="nonzero"/><path fill="rgb(14.898682%, 14.898682%, 15.689087%)" d="M 208.832031 195.914062 L 212.792969 199.875 L 216.753906 195.914062 L 212.792969 191.953125 L 208.832031 195.914062 " fill-opacity="1" fill-rule="nonzero"/><path fill="rgb(14.898682%, 14.898682%, 15.689087%)" d="M 220.714844 207.800781 L 224.675781 203.839844 L 220.714844 199.875 L 216.753906 203.839844 L 220.714844 207.800781 " fill-opacity="1" fill-rule="nonzero"/><path fill="rgb(14.898682%, 14.898682%, 15.689087%)" d="M 224.675781 211.761719 L 228.636719 215.734375 L 232.601562 211.761719 L 228.636719 207.800781 L 224.675781 211.761719 " fill-opacity="1" fill-rule="nonzero"/><path fill="rgb(14.898682%, 14.898682%, 15.689087%)" d="M 232.609375 219.683594 L 236.5625 223.65625 L 240.535156 219.683594 L 236.5625 215.734375 L 232.609375 219.683594 " fill-opacity="1" fill-rule="nonzero"/><path fill="rgb(14.898682%, 14.898682%, 15.689087%)" d="M 220.660156 172.96875 L 226.265625 172.96875 L 226.265625 167.363281 L 220.660156 167.363281 L 220.660156 172.96875 " fill-opacity="1" fill-rule="nonzero"/><path fill="rgb(14.898682%, 14.898682%, 15.689087%)" d="M 231.867188 172.96875 L 237.46875 172.96875 L 237.46875 167.363281 L 231.867188 167.363281 L 231.867188 172.96875 " fill-opacity="1" fill-rule="nonzero"/><path fill="rgb(14.898682%, 14.898682%, 15.689087%)" d="M 243.074219 167.363281 L 243.074219 172.96875 L 248.675781 172.96875 L 248.675781 167.363281 L 243.074219 167.363281 " fill-opacity="1" fill-rule="nonzero"/><path fill="rgb(14.898682%, 14.898682%, 15.689087%)" d="M 259.882812 167.363281 L 254.277344 167.363281 L 254.277344 172.96875 L 259.882812 172.96875 L 259.882812 167.363281 " fill-opacity="1" fill-rule="nonzero"/><path fill="rgb(14.898682%, 14.898682%, 15.689087%)" d="M 161.292969 191.953125 L 157.332031 195.914062 L 161.292969 199.875 L 165.253906 195.914062 L 161.292969 191.953125 " fill-opacity="1" fill-rule="nonzero"/><path fill="rgb(14.898682%, 14.898682%, 15.689087%)" d="M 149.410156 203.839844 L 153.371094 207.800781 L 157.332031 203.839844 L 153.371094 199.875 L 149.410156 203.839844 " fill-opacity="1" fill-rule="nonzero"/><path fill="rgb(14.898682%, 14.898682%, 15.689087%)" d="M 141.488281 211.761719 L 145.449219 215.734375 L 149.410156 211.761719 L 145.449219 207.800781 L 141.488281 211.761719 " fill-opacity="1" fill-rule="nonzero"/><path fill="rgb(14.898682%, 14.898682%, 15.689087%)" d="M 137.523438 223.65625 L 141.476562 219.683594 L 137.523438 215.734375 L 133.550781 219.683594 L 137.523438 223.65625 " fill-opacity="1" fill-rule="nonzero"/><path fill="rgb(14.898682%, 14.898682%, 15.689087%)" d="M 147.824219 172.96875 L 153.425781 172.96875 L 153.425781 167.363281 L 147.824219 167.363281 L 147.824219 172.96875 " fill-opacity="1" fill-rule="nonzero"/><path fill="rgb(14.898682%, 14.898682%, 15.689087%)" d="M 136.617188 172.96875 L 142.21875 172.96875 L 142.21875 167.363281 L 136.617188 167.363281 L 136.617188 172.96875 " fill-opacity="1" fill-rule="nonzero"/><path fill="rgb(14.898682%, 14.898682%, 15.689087%)" d="M 125.410156 167.363281 L 125.410156 172.96875 L 131.015625 172.96875 L 131.015625 167.363281 L 125.410156 167.363281 " fill-opacity="1" fill-rule="nonzero"/><path fill="rgb(14.898682%, 14.898682%, 15.689087%)" d="M 119.808594 167.363281 L 114.203125 167.363281 L 114.203125 172.96875 L 119.808594 172.96875 L 119.808594 167.363281 " fill-opacity="1" fill-rule="nonzero"/><g fill="rgb(14.898682%, 14.898682%, 15.689087%)" fill-opacity="1"><use x="38.582415" y="331.513337" xmlns:xlink="http://www.w3.org/1999/xlink" xlink:href="#glyph-0-1" xlink:type="simple" xlink:actuate="onLoad" xlink:show="embed"/></g><g fill="rgb(14.898682%, 14.898682%, 15.689087%)" fill-opacity="1"><use x="52.349794" y="331.513337" xmlns:xlink="http://www.w3.org/1999/xlink" xlink:href="#glyph-0-2" xlink:type="simple" xlink:actuate="onLoad" xlink:show="embed"/></g><g fill="rgb(14.898682%, 14.898682%, 15.689087%)" fill-opacity="1"><use x="66.349075" y="331.513337" xmlns:xlink="http://www.w3.org/1999/xlink" xlink:href="#glyph-0-3" xlink:type="simple" xlink:actuate="onLoad" xlink:show="embed"/></g><g fill="rgb(14.898682%, 14.898682%, 15.689087%)" fill-opacity="1"><use x="82.850402" y="331.513337" xmlns:xlink="http://www.w3.org/1999/xlink" xlink:href="#glyph-0-4" xlink:type="simple" xlink:actuate="onLoad" xlink:show="embed"/></g><g fill="rgb(14.898682%, 14.898682%, 15.689087%)" fill-opacity="1"><use x="99.095426" y="331.513337" xmlns:xlink="http://www.w3.org/1999/xlink" xlink:href="#glyph-0-5" xlink:type="simple" xlink:actuate="onLoad" xlink:show="embed"/></g><g fill="rgb(14.898682%, 14.898682%, 15.689087%)" fill-opacity="1"><use x="107.3705" y="331.513337" xmlns:xlink="http://www.w3.org/1999/xlink" xlink:href="#glyph-0-6" xlink:type="simple" xlink:actuate="onLoad" xlink:show="embed"/></g><g fill="rgb(14.898682%, 14.898682%, 15.689087%)" fill-opacity="1"><use x="123.298191" y="331.513337" xmlns:xlink="http://www.w3.org/1999/xlink" xlink:href="#glyph-0-5" xlink:type="simple" xlink:actuate="onLoad" xlink:show="embed"/></g><g fill="rgb(14.898682%, 14.898682%, 15.689087%)" fill-opacity="1"><use x="131.573264" y="331.513337" xmlns:xlink="http://www.w3.org/1999/xlink" xlink:href="#glyph-0-7" xlink:type="simple" xlink:actuate="onLoad" xlink:show="embed"/></g><g fill="rgb(14.898682%, 14.898682%, 15.689087%)" fill-opacity="1"><use x="151.467615" y="331.513337" xmlns:xlink="http://www.w3.org/1999/xlink" xlink:href="#glyph-0-8" xlink:type="simple" xlink:actuate="onLoad" xlink:show="embed"/></g><g fill="rgb(14.898682%, 14.898682%, 15.689087%)" fill-opacity="1"><use x="157.960741" y="331.513337" xmlns:xlink="http://www.w3.org/1999/xlink" xlink:href="#glyph-0-9" xlink:type="simple" xlink:actuate="onLoad" xlink:show="embed"/></g><g fill="rgb(14.898682%, 14.898682%, 15.689087%)" fill-opacity="1"><use x="176.463708" y="331.513337" xmlns:xlink="http://www.w3.org/1999/xlink" xlink:href="#glyph-0-2" xlink:type="simple" xlink:actuate="onLoad" xlink:show="embed"/></g><g fill="rgb(14.898682%, 14.898682%, 15.689087%)" fill-opacity="1"><use x="190.462989" y="331.513337" xmlns:xlink="http://www.w3.org/1999/xlink" xlink:href="#glyph-0-8" xlink:type="simple" xlink:actuate="onLoad" xlink:show="embed"/></g><g fill="rgb(14.898682%, 14.898682%, 15.689087%)" fill-opacity="1"><use x="196.956115" y="331.513337" xmlns:xlink="http://www.w3.org/1999/xlink" xlink:href="#glyph-0-10" xlink:type="simple" xlink:actuate="onLoad" xlink:show="embed"/></g><g fill="rgb(14.898682%, 14.898682%, 15.689087%)" fill-opacity="1"><use x="214.201959" y="331.513337" xmlns:xlink="http://www.w3.org/1999/xlink" xlink:href="#glyph-0-1" xlink:type="simple" xlink:actuate="onLoad" xlink:show="embed"/></g><g fill="rgb(14.898682%, 14.898682%, 15.689087%)" fill-opacity="1"><use x="227.969338" y="331.513337" xmlns:xlink="http://www.w3.org/1999/xlink" xlink:href="#glyph-0-11" xlink:type="simple" xlink:actuate="onLoad" xlink:show="embed"/></g><g fill="rgb(14.898682%, 14.898682%, 15.689087%)" fill-opacity="1"><use x="243.665126" y="331.513337" xmlns:xlink="http://www.w3.org/1999/xlink" xlink:href="#glyph-0-2" xlink:type="simple" xlink:actuate="onLoad" xlink:show="embed"/></g><g fill="rgb(14.898682%, 14.898682%, 15.689087%)" fill-opacity="1"><use x="257.664408" y="331.513337" xmlns:xlink="http://www.w3.org/1999/xlink" xlink:href="#glyph-0-3" xlink:type="simple" xlink:actuate="onLoad" xlink:show="embed"/></g><g fill="rgb(14.898682%, 14.898682%, 15.689087%)" fill-opacity="1"><use x="274.165734" y="331.513337" xmlns:xlink="http://www.w3.org/1999/xlink" xlink:href="#glyph-0-1" xlink:type="simple" xlink:actuate="onLoad" xlink:show="embed"/></g><g fill="rgb(14.898682%, 14.898682%, 15.689087%)" fill-opacity="1"><use x="287.933113" y="331.513337" xmlns:xlink="http://www.w3.org/1999/xlink" xlink:href="#glyph-0-5" xlink:type="simple" xlink:actuate="onLoad" xlink:show="embed"/></g><g fill="rgb(14.898682%, 14.898682%, 15.689087%)" fill-opacity="1"><use x="296.208175" y="331.513337" xmlns:xlink="http://www.w3.org/1999/xlink" xlink:href="#glyph-0-7" xlink:type="simple" xlink:actuate="onLoad" xlink:show="embed"/></g><g fill="rgb(14.898682%, 14.898682%, 15.689087%)" fill-opacity="1"><use x="316.102537" y="331.513337" xmlns:xlink="http://www.w3.org/1999/xlink" xlink:href="#glyph-0-12" xlink:type="simple" xlink:actuate="onLoad" xlink:show="embed"/></g><g fill="rgb(14.898682%, 14.898682%, 15.689087%)" fill-opacity="1"><use x="104.68788" y="360.763335" xmlns:xlink="http://www.w3.org/1999/xlink" xlink:href="#glyph-0-6" xlink:type="simple" xlink:actuate="onLoad" xlink:show="embed"/></g><g fill="rgb(14.898682%, 14.898682%, 15.689087%)" fill-opacity="1"><use x="120.615571" y="360.763335" xmlns:xlink="http://www.w3.org/1999/xlink" xlink:href="#glyph-0-7" xlink:type="simple" xlink:actuate="onLoad" xlink:show="embed"/></g><g fill="rgb(14.898682%, 14.898682%, 15.689087%)" fill-opacity="1"><use x="140.509922" y="360.763335" xmlns:xlink="http://www.w3.org/1999/xlink" xlink:href="#glyph-0-12" xlink:type="simple" xlink:actuate="onLoad" xlink:show="embed"/></g><g fill="rgb(14.898682%, 14.898682%, 15.689087%)" fill-opacity="1"><use x="160.831458" y="360.763335" xmlns:xlink="http://www.w3.org/1999/xlink" xlink:href="#glyph-0-8" xlink:type="simple" xlink:actuate="onLoad" xlink:show="embed"/></g><g fill="rgb(14.898682%, 14.898682%, 15.689087%)" fill-opacity="1"><use x="167.324583" y="360.763335" xmlns:xlink="http://www.w3.org/1999/xlink" xlink:href="#glyph-0-9" xlink:type="simple" xlink:actuate="onLoad" xlink:show="embed"/></g><g fill="rgb(14.898682%, 14.898682%, 15.689087%)" fill-opacity="1"><use x="185.82755" y="360.763335" xmlns:xlink="http://www.w3.org/1999/xlink" xlink:href="#glyph-0-3" xlink:type="simple" xlink:actuate="onLoad" xlink:show="embed"/></g><g fill="rgb(14.898682%, 14.898682%, 15.689087%)" fill-opacity="1"><use x="202.328876" y="360.763335" xmlns:xlink="http://www.w3.org/1999/xlink" xlink:href="#glyph-0-7" xlink:type="simple" xlink:actuate="onLoad" xlink:show="embed"/></g><g fill="rgb(14.898682%, 14.898682%, 15.689087%)" fill-opacity="1"><use x="222.223227" y="360.763335" xmlns:xlink="http://www.w3.org/1999/xlink" xlink:href="#glyph-0-12" xlink:type="simple" xlink:actuate="onLoad" xlink:show="embed"/></g><g fill="rgb(14.898682%, 14.898682%, 15.689087%)" fill-opacity="1"><use x="242.544763" y="360.763335" xmlns:xlink="http://www.w3.org/1999/xlink" xlink:href="#glyph-0-2" xlink:type="simple" xlink:actuate="onLoad" xlink:show="embed"/></g><g fill="rgb(14.898682%, 14.898682%, 15.689087%)" fill-opacity="1"><use x="256.544045" y="360.763335" xmlns:xlink="http://www.w3.org/1999/xlink" xlink:href="#glyph-0-1" xlink:type="simple" xlink:actuate="onLoad" xlink:show="embed"/></g></svg>